# xmcd
#
# Track frame offsets: 
#        150
#        14295
#        33035
#        45677
#        68900
#        74425
#        106392
#        122367
#        133705
#        149127
#        153717
#        175350
#        201350
#
# Disc length: 2812 seconds
#
# Revision: 5
# Processed by: cddbd v1.5.2PL0 Copyright (c) Steve Scherf et al.
# Submitted via: ExactAudioCopyFreeDBPlugin 1.0
#
DISCID=c10afa0d
DTITLE=S.E.N.S - Masala Tea Waltz - The Silk Road of The Sea
DYEAR=1988
DGENRE=Soundtrack
TTITLE0=Masala Tea Waltz
TTITLE1=Happy Arabia
TTITLE2=Beyond
TTITLE3=ヒッパロスの風
TTITLE4=Compass
TTITLE5=Troubadour
TTITLE6=Jambia Dance
TTITLE7=水辺のやすらぎ
TTITLE8=絹のベール
TTITLE9=Shinden
TTITLE10=色彩
TTITLE11=SAILING
TTITLE12=Masala Tea Waltz～航海のあとに～
EXTD=YEAR: 1988
EXTT0=
EXTT1=
EXTT2=
EXTT3=
EXTT4=
EXTT5=
EXTT6=
EXTT7=
EXTT8=
EXTT9=
EXTT10=
EXTT11=
EXTT12=
PLAYORDER=
